<svg width="1440" height="1024" viewBox="0 0 1440 1024" fill="none" xmlns="http://www.w3.org/2000/svg">
<g clip-path="url(#clip0_475_312)">
<rect width="1440" height="1024" fill="white"/>
<g filter="url(#filter0_f_475_312)">
<path d="M1337.51 880.978C1219.55 957.901 1047.96 916.76 939.074 818.599C830.19 720.437 689.911 457.942 684.21 292.008C678.509 126.074 789.957 -99.3455 904.868 -177.007C1019.78 -254.668 1250.01 -262.97 1373.67 -173.958C1497.33 -84.9463 1652.86 181.241 1646.83 357.063" fill="url(#paint0_linear_475_312)"/>
</g>
<g filter="url(#filter1_f_475_312)">
<path d="M616.754 692.267C473.278 760.213 220.223 769.188 97.1657 682.631C-25.8917 596.074 -141.148 357.259 -121.59 172.926C-102.032 -11.4075 76.2889 -377.527 214.513 -423.367C352.737 -469.207 583.837 -218.502 707.755 -102.115C831.674 14.2724 973.191 142.559 958.024 274.956" fill="url(#paint1_linear_475_312)"/>
</g>
<g filter="url(#filter2_f_475_312)">
<path d="M1319.08 1191.37C1160.22 1264.44 819.384 1358.27 675.704 1295.24C532.024 1232.22 457 954.995 457 813.219C457 671.443 537.941 510.145 675.704 444.586C813.467 379.028 1124.72 351.164 1283.58 419.867C1442.43 488.57 1622.92 728.22 1628.84 856.803" fill="url(#paint2_linear_475_312)"/>
</g>
<g filter="url(#filter3_f_475_312)">
<path d="M502.657 1174.32C402.296 1234.33 145.772 1135.53 23.3659 1077.99C-99.0405 1020.45 -238.264 944.289 -231.782 829.073C-225.3 713.858 -63.4753 467.519 62.2554 386.701C187.986 305.883 428.722 288.962 522.602 344.168C616.481 399.373 628.856 579.576 625.532 717.935" fill="url(#paint3_linear_475_312)"/>
</g>
<g style="mix-blend-mode:overlay" filter="url(#filter4_f_475_312)">
<path d="M502.657 1174.32C402.296 1234.33 145.772 1135.53 23.3659 1077.99C-99.0405 1020.45 -238.264 944.289 -231.782 829.073C-225.3 713.858 -63.4753 467.519 62.2554 386.701C187.986 305.883 428.722 288.962 522.602 344.168C616.481 399.373 628.856 579.576 625.532 717.935" fill="url(#paint4_linear_475_312)"/>
</g>
<g style="mix-blend-mode:overlay" filter="url(#filter5_f_475_312)">
<path d="M1319.08 1191.37C1160.22 1264.44 819.384 1358.27 675.704 1295.24C532.024 1232.22 457 954.995 457 813.219C457 671.443 537.941 510.145 675.704 444.586C813.467 379.028 1124.72 351.164 1283.58 419.867C1442.43 488.57 1622.92 728.22 1628.84 856.803" fill="url(#paint5_linear_475_312)"/>
</g>
<g style="mix-blend-mode:overlay" filter="url(#filter6_f_475_312)">
<path d="M1337.51 880.978C1219.55 957.901 1047.96 916.76 939.074 818.599C830.19 720.437 689.911 457.942 684.21 292.008C678.509 126.074 789.957 -99.3455 904.868 -177.007C1019.78 -254.668 1250.01 -262.97 1373.67 -173.958C1497.33 -84.9463 1652.86 181.241 1646.83 357.063" fill="url(#paint6_linear_475_312)"/>
</g>
<g style="mix-blend-mode:overlay" filter="url(#filter7_f_475_312)">
<path d="M616.754 692.267C473.278 760.213 220.223 769.188 97.1656 682.631C-25.8918 596.074 -141.148 357.259 -121.59 172.926C-102.032 -11.4075 76.2888 -377.527 214.513 -423.367C352.737 -469.207 583.837 -218.502 707.755 -102.115C831.674 14.2724 973.191 142.559 958.024 274.956" fill="url(#paint7_linear_475_312)"/>
</g>
</g>
<defs>
<filter id="filter0_f_475_312" x="544" y="-378" width="1243" height="1439" filterUnits="userSpaceOnUse" color-interpolation-filters="sRGB">
<feFlood flood-opacity="0" result="BackgroundImageFix"/>
<feBlend mode="normal" in="SourceGraphic" in2="BackgroundImageFix" result="shape"/>
<feGaussianBlur stdDeviation="70" result="effect1_foregroundBlur_475_312"/>
</filter>
<filter id="filter1_f_475_312" x="-263.769" y="-568.899" width="1362.92" height="1454.29" filterUnits="userSpaceOnUse" color-interpolation-filters="sRGB">
<feFlood flood-opacity="0" result="BackgroundImageFix"/>
<feBlend mode="normal" in="SourceGraphic" in2="BackgroundImageFix" result="shape"/>
<feGaussianBlur stdDeviation="70" result="effect1_foregroundBlur_475_312"/>
</filter>
<filter id="filter2_f_475_312" x="317" y="240" width="1451.84" height="1216" filterUnits="userSpaceOnUse" color-interpolation-filters="sRGB">
<feFlood flood-opacity="0" result="BackgroundImageFix"/>
<feBlend mode="normal" in="SourceGraphic" in2="BackgroundImageFix" result="shape"/>
<feGaussianBlur stdDeviation="70" result="effect1_foregroundBlur_475_312"/>
</filter>
<filter id="filter3_f_475_312" x="-372" y="172" width="1138" height="1161" filterUnits="userSpaceOnUse" color-interpolation-filters="sRGB">
<feFlood flood-opacity="0" result="BackgroundImageFix"/>
<feBlend mode="normal" in="SourceGraphic" in2="BackgroundImageFix" result="shape"/>
<feGaussianBlur stdDeviation="70" result="effect1_foregroundBlur_475_312"/>
</filter>
<filter id="filter4_f_475_312" x="-372" y="172" width="1138" height="1161" filterUnits="userSpaceOnUse" color-interpolation-filters="sRGB">
<feFlood flood-opacity="0" result="BackgroundImageFix"/>
<feBlend mode="normal" in="SourceGraphic" in2="BackgroundImageFix" result="shape"/>
<feGaussianBlur stdDeviation="70" result="effect1_foregroundBlur_475_312"/>
</filter>
<filter id="filter5_f_475_312" x="317" y="240" width="1451.84" height="1216" filterUnits="userSpaceOnUse" color-interpolation-filters="sRGB">
<feFlood flood-opacity="0" result="BackgroundImageFix"/>
<feBlend mode="normal" in="SourceGraphic" in2="BackgroundImageFix" result="shape"/>
<feGaussianBlur stdDeviation="70" result="effect1_foregroundBlur_475_312"/>
</filter>
<filter id="filter6_f_475_312" x="544" y="-378" width="1243" height="1439" filterUnits="userSpaceOnUse" color-interpolation-filters="sRGB">
<feFlood flood-opacity="0" result="BackgroundImageFix"/>
<feBlend mode="normal" in="SourceGraphic" in2="BackgroundImageFix" result="shape"/>
<feGaussianBlur stdDeviation="70" result="effect1_foregroundBlur_475_312"/>
</filter>
<filter id="filter7_f_475_312" x="-263.77" y="-568.899" width="1362.92" height="1454.29" filterUnits="userSpaceOnUse" color-interpolation-filters="sRGB">
<feFlood flood-opacity="0" result="BackgroundImageFix"/>
<feBlend mode="normal" in="SourceGraphic" in2="BackgroundImageFix" result="shape"/>
<feGaussianBlur stdDeviation="70" result="effect1_foregroundBlur_475_312"/>
</filter>
<linearGradient id="paint0_linear_475_312" x1="1165.5" y1="-238" x2="1165.5" y2="921" gradientUnits="userSpaceOnUse">
<stop stop-color="#7ED0E1"/>
<stop offset="1" stop-color="#458E7D"/>
</linearGradient>
<linearGradient id="paint1_linear_475_312" x1="554.728" y1="-361.406" x2="293.272" y2="749.781" gradientUnits="userSpaceOnUse">
<stop stop-color="#E0F2EC"/>
<stop offset="1" stop-color="#458E7D"/>
</linearGradient>
<linearGradient id="paint2_linear_475_312" x1="1043" y1="380" x2="1043" y2="1316" gradientUnits="userSpaceOnUse">
<stop stop-color="#7ED0E1"/>
<stop offset="1" stop-color="#E0F2EC"/>
</linearGradient>
<linearGradient id="paint3_linear_475_312" x1="197" y1="312" x2="197" y2="1193" gradientUnits="userSpaceOnUse">
<stop stop-color="#7ED0E1"/>
<stop offset="1" stop-color="#458E7D"/>
</linearGradient>
<linearGradient id="paint4_linear_475_312" x1="197" y1="312" x2="197" y2="1193" gradientUnits="userSpaceOnUse">
<stop stop-color="#7ED0E1"/>
<stop offset="1" stop-color="#458E7D"/>
</linearGradient>
<linearGradient id="paint5_linear_475_312" x1="1043" y1="380" x2="1043" y2="1316" gradientUnits="userSpaceOnUse">
<stop stop-color="#7ED0E1"/>
<stop offset="1" stop-color="#E0F2EC"/>
</linearGradient>
<linearGradient id="paint6_linear_475_312" x1="1165.5" y1="-238" x2="1165.5" y2="921" gradientUnits="userSpaceOnUse">
<stop stop-color="#7ED0E1"/>
<stop offset="1" stop-color="#458E7D"/>
</linearGradient>
<linearGradient id="paint7_linear_475_312" x1="554.728" y1="-361.406" x2="293.271" y2="749.781" gradientUnits="userSpaceOnUse">
<stop stop-color="#E0F2EC"/>
<stop offset="1" stop-color="#458E7D"/>
</linearGradient>
<clipPath id="clip0_475_312">
<rect width="1440" height="1024" fill="white"/>
</clipPath>
</defs>
</svg>
