<svg width="59" height="55" viewBox="0 0 59 55" fill="none" xmlns="http://www.w3.org/2000/svg">
<g style="mix-blend-mode:hard-light" opacity="0.5">
<g clip-path="url(#clip0_463_356)">
<mask id="mask0_463_356" style="mask-type:luminance" maskUnits="userSpaceOnUse" x="13" y="13" width="33" height="28">
<path d="M45.25 13.5039H13.75V40.5039H45.25V13.5039Z" fill="white"/>
</mask>
<g mask="url(#mask0_463_356)">
<path d="M40.4161 15.9083C38.4084 14.889 36.2554 14.138 34.0044 13.7079C33.9634 13.6996 33.9224 13.7203 33.9013 13.7618C33.6244 14.3067 33.3177 15.0176 33.1029 15.5763C30.6818 15.1753 28.2731 15.1753 25.9015 15.5763C25.6867 15.0052 25.3689 14.3067 25.0908 13.7618C25.0696 13.7217 25.0287 13.7009 24.9877 13.7079C22.7379 14.1366 20.5849 14.8876 18.576 15.9083C18.5586 15.9166 18.5437 15.9304 18.5338 15.9484C14.4501 22.6991 13.3314 29.2839 13.8802 35.787C13.8827 35.8188 13.8988 35.8492 13.9211 35.8686C16.6155 38.0579 19.2254 39.3871 21.7868 40.268C21.8278 40.2819 21.8712 40.2653 21.8973 40.2279C22.5032 39.3124 23.0433 38.347 23.5064 37.3318C23.5338 37.2724 23.5077 37.2018 23.4518 37.1783C22.5951 36.8187 21.7794 36.3803 20.9946 35.8824C20.9326 35.8423 20.9276 35.7441 20.9847 35.697C21.1498 35.5601 21.315 35.4177 21.4727 35.2738C21.5012 35.2476 21.541 35.242 21.5745 35.2586C26.7297 37.8629 32.3108 37.8629 37.4051 35.2586C37.4387 35.2406 37.4784 35.2462 37.5082 35.2725C37.6659 35.4163 37.831 35.5601 37.9974 35.697C38.0545 35.7441 38.0508 35.8423 37.9887 35.8824C37.204 36.39 36.3883 36.8187 35.5303 37.1769C35.4744 37.2005 35.4496 37.2724 35.4769 37.3318C35.95 38.3456 36.4901 39.311 37.0848 40.2266C37.1096 40.2653 37.1543 40.2819 37.1953 40.268C39.7692 39.3871 42.3791 38.0579 45.0734 35.8686C45.097 35.8492 45.1119 35.8202 45.1144 35.7884C45.7712 28.27 44.0143 21.7393 40.457 15.9498C40.4483 15.9304 40.4335 15.9166 40.4161 15.9083ZM24.2763 31.8273C22.7242 31.8273 21.4454 30.2506 21.4454 28.3143C21.4454 26.378 22.6994 24.8014 24.2763 24.8014C25.8655 24.8014 27.132 26.3919 27.1072 28.3143C27.1072 30.2506 25.8531 31.8273 24.2763 31.8273ZM34.7431 31.8273C33.1911 31.8273 31.9122 30.2506 31.9122 28.3143C31.9122 26.378 33.1662 24.8014 34.7431 24.8014C36.3324 24.8014 37.5988 26.3919 37.574 28.3143C37.574 30.2506 36.3324 31.8273 34.7431 31.8273Z" fill="#23272A"/>
</g>
</g>
<rect x="0.53125" y="0.285156" width="57.9375" height="53.4375" stroke="url(#paint0_linear_463_356)" stroke-width="0.5625"/>
</g>
<defs>
<linearGradient id="paint0_linear_463_356" x1="0.25" y1="0.00390625" x2="61.5458" y2="3.38974" gradientUnits="userSpaceOnUse">
<stop stop-color="white" stop-opacity="0.5"/>
<stop offset="1" stop-color="white" stop-opacity="0.5"/>
</linearGradient>
<clipPath id="clip0_463_356">
<rect width="31.5" height="27" fill="white" transform="translate(13.75 13.5039)"/>
</clipPath>
</defs>
</svg>
