<svg width="25" height="25" viewBox="0 0 25 25" fill="none" xmlns="http://www.w3.org/2000/svg">
<g style="mix-blend-mode:hard-light" opacity="0.5" clip-path="url(#clip0_486_27)">
<path d="M21.5 7.78V5.5C21.5 4.4 20.6 3.5 19.5 3.5H5.5C4.39 3.5 3.5 4.4 3.5 5.5V19.5C3.5 20.6 4.39 21.5 5.5 21.5H19.5C20.6 21.5 21.5 20.6 21.5 19.5V17.22C22.09 16.87 22.5 16.24 22.5 15.5V9.5C22.5 8.76 22.09 8.13 21.5 7.78ZM20.5 9.5V15.5H13.5V9.5H20.5ZM5.5 19.5V5.5H19.5V7.5H13.5C12.4 7.5 11.5 8.4 11.5 9.5V15.5C11.5 16.6 12.4 17.5 13.5 17.5H19.5V19.5H5.5Z" fill="#111111"/>
<path d="M16.5 14C17.3284 14 18 13.3284 18 12.5C18 11.6716 17.3284 11 16.5 11C15.6716 11 15 11.6716 15 12.5C15 13.3284 15.6716 14 16.5 14Z" fill="#111111"/>
</g>
<defs>
<clipPath id="clip0_486_27">
<rect width="24" height="24" fill="white" transform="translate(0.5 0.5)"/>
</clipPath>
</defs>
</svg>
